<?xml version="1.0" standalone="no"?>
<!DOCTYPE svg PUBLIC "-//W3C//DTD SVG 20010904//EN"
 "http://www.w3.org/TR/2001/REC-SVG-20010904/DTD/svg10.dtd">
<svg version="1.0" xmlns="http://www.w3.org/2000/svg"
 width="86.000000pt" height="86.000000pt" viewBox="0 0 86.000000 86.000000"
 preserveAspectRatio="xMidYMid meet">
<metadata>
Created by potrace 1.11, written by Peter Selinger 2001-2013
</metadata>
<g transform="translate(0.000000,86.000000) scale(0.100000,-0.100000)"
fill="#000000" stroke="none">
<path d="M384 803 c-7 -12 -26 -18 -58 -19 -26 -1 -53 -7 -59 -13 -6 -6 -8
-11 -3 -11 4 0 -6 -11 -22 -25 -17 -14 -37 -25 -45 -25 -16 0 -40 -24 -31 -32
10 -10 -29 -76 -47 -81 -20 -5 -26 -32 -9 -42 10 -6 2 -65 -11 -79 -12 -13
-11 -46 0 -46 14 0 31 -60 25 -87 -5 -18 -2 -25 12 -29 23 -6 64 -63 64 -87 0
-12 8 -17 28 -17 15 0 35 -7 45 -15 17 -12 18 -18 7 -51 -7 -20 -26 -50 -42
-66 -17 -16 -27 -32 -24 -36 8 -7 426 -6 433 2 4 3 -5 16 -20 28 -37 33 -51
76 -35 108 18 34 47 57 82 64 20 4 26 10 22 21 -7 19 25 84 41 85 17 0 26 19
17 38 -9 22 -5 74 7 87 12 12 12 45 -1 45 -13 0 -29 63 -23 94 5 23 -5 33 -22
24 -8 -5 -55 66 -55 84 0 11 -7 18 -20 18 -28 0 -71 23 -93 50 -14 17 -21 19
-32 10 -15 -13 -72 -7 -88 9 -16 16 -31 13 -43 -6z"/>
<path d="M801 191 c0 -14 3 -20 6 -13 2 6 11 12 18 12 25 0 25 18 0 22 -22 5
-25 2 -24 -21z"/>
<path d="M85 200 c-3 -6 -17 -10 -30 -10 -30 0 -59 -41 -50 -70 4 -11 17 -28
31 -36 13 -9 24 -22 24 -29 0 -15 43 -23 81 -15 25 5 27 8 25 58 -1 36 3 56
13 61 10 6 11 13 3 28 -8 14 -22 20 -51 21 -22 1 -43 -3 -46 -8z"/>
<path d="M677 193 c-7 -24 -2 -103 8 -130 8 -25 55 -33 55 -10 0 7 9 18 20 25
40 25 9 95 -35 78 -9 -3 -12 0 -8 10 5 14 -13 44 -28 44 -4 0 -10 -8 -12 -17z"/>
</g>
</svg>
